<?xml version="1.0" encoding="UTF-8" standalone="no"?>
<!-- Created with Inkscape (http://www.inkscape.org/) -->

<svg
   version="1.1"
   id="svg1"
   width="577.59998"
   height="577.5"
   viewBox="0 0 577.59998 577.5"
   sodipodi:docname="Seal of the Defense Innovation Unit.svg"
   inkscape:version="1.3.2 (091e20e, 2023-11-25, custom)"
   xmlns:inkscape="http://www.inkscape.org/namespaces/inkscape"
   xmlns:sodipodi="http://sodipodi.sourceforge.net/DTD/sodipodi-0.dtd"
   xmlns="http://www.w3.org/2000/svg"
   xmlns:svg="http://www.w3.org/2000/svg">
  <defs
     id="defs1" />
  <sodipodi:namedview
     id="namedview1"
     pagecolor="#ffffff"
     bordercolor="#000000"
     borderopacity="0.25"
     inkscape:showpageshadow="2"
     inkscape:pageopacity="0.0"
     inkscape:pagecheckerboard="0"
     inkscape:deskcolor="#d1d1d1"
     inkscape:zoom="0.70710678"
     inkscape:cx="243.95184"
     inkscape:cy="270.8219"
     inkscape:window-width="1366"
     inkscape:window-height="745"
     inkscape:window-x="-8"
     inkscape:window-y="-8"
     inkscape:window-maximized="1"
     inkscape:current-layer="g1" />
  <g
     inkscape:groupmode="layer"
     inkscape:label="Image"
     id="g1"
     transform="translate(-0.01250807,-0.00705754)">
    <g
       id="g3">
      <path
         d="m 288.81251,577.10706 c -77,0 -149.4,-30 -203.900002,-84.5 -54.5,-54.5 -84.49999993,-126.8 -84.49999993,-203.9 0,-77 29.99999993,-149.4 84.49999993,-203.900002 54.500002,-54.5 126.900002,-84.40000046 203.900002,-84.40000046 77,0 149.4,30.00000046 203.9,84.50000046 54.5,54.500002 84.5,126.900002 84.5,203.900002 0,77 -30,149.4 -84.5,203.9 -54.5,54.5 -126.9,84.4 -203.9,84.4 z"
         class="y"
         id="path4"
         inkscape:connector-curvature="0"
         style="display:inline;fill:#ffcd00" />
      <path
         d="m 288.81251,0.70705754 c 159.1,0 288,128.90000246 288,288.00000246 0,159.1 -128.9,288 -288,288 -159.1,0 -288.00000193,-128.9 -288.00000193,-288 0,-159.1 128.90000193,-288.00000246 288.00000193,-288.00000246 m 0,-0.7 c -39,0 -76.8,7.59999996 -112.4,22.69999946 -34.4,14.5 -65.3,35.3 -91.800002,61.9 -26.5,26.600003 -47.3,57.400003 -61.9,91.700003 -14.9999996,35.6 -22.69999993,73.5 -22.69999993,112.4 0,38.9 7.60000033,76.8 22.69999993,112.4 14.5,34.4 35.4,65.3 61.9,91.8 26.500002,26.5 57.400002,47.3 91.800002,61.9 35.6,15.1 73.4,22.7 112.4,22.7 39,0 76.8,-7.6 112.4,-22.7 34.4,-14.5 65.3,-35.4 91.8,-61.9 26.5,-26.5 47.3,-57.4 61.9,-91.8 15.1,-35.6 22.7,-73.4 22.7,-112.4 0,-39 -7.6,-76.8 -22.7,-112.4 -14.5,-34.4 -35.4,-65.3 -61.9,-91.800002 -26.5,-26.5 -57.4,-47.3 -91.8,-61.9 -35.6,-15.0000005 -73.4,-22.60000046 -112.4,-22.60000046 z"
         class="AR"
         id="path6"
         inkscape:connector-curvature="0"
         style="display:inline;fill:#b16d03" />
      <path
         d="m 288.81251,568.10706 c -74.6,0 -144.8,-29.1 -197.500002,-81.8 -52.8,-52.8 -81.7999996,-122.9 -81.7999996,-197.5 0,-74.6 28.9999996,-144.9 81.7999996,-197.600003 52.800002,-52.7 122.900002,-81.7999995 197.500002,-81.7999995 74.6,0 144.8,29.0999995 197.5,81.7999995 52.8,52.800003 81.8,122.900003 81.8,197.500003 0,74.6 -29.1,144.8 -81.8,197.5 -52.7,52.8 -122.9,81.9 -197.5,81.9 z"
         id="path8"
         inkscape:connector-curvature="0"
         style="display:inline;fill:#daa900" />
      <path
         d="m 288.81251,9.7070575 c 154.1,0 279,124.9000025 279,279.0000025 0,154.1 -124.9,279 -279,279 -154.1,0 -279.0000016,-124.9 -279.0000016,-279 0,-154.1 124.9000016,-279.0000025 279.0000016,-279.0000025 m 0,-0.7 c -37.8,0 -74.4,7.4000005 -108.9,22.0000005 -33.3,14.1 -63.2,34.3 -88.900002,60 -25.7,25.700002 -45.9,55.600002 -60,88.900002 -14.6,34.5 -21.9999996,71.1 -21.9999996,108.9 0,37.8 7.3999996,74.4 21.9999996,108.9 14.1,33.3 34.3,63.2 60,88.9 25.700002,25.7 55.600002,45.9 88.900002,60 34.5,14.6 71.1,22 108.9,22 37.8,0 74.4,-7.4 108.9,-22 33.3,-14.1 63.2,-34.3 88.9,-60 25.7,-25.7 45.9,-55.6 60,-88.9 14.6,-34.5 22,-71.1 22,-108.9 0,-37.8 -7.4,-74.4 -22,-108.9 -14.1,-33.3 -34.3,-63.2 -60,-88.900002 -25.7,-25.7 -55.6,-45.9 -88.9,-60 -34.5,-14.6 -71.1,-22.0000005 -108.9,-22.0000005 z"
         id="path10"
         inkscape:connector-curvature="0"
         style="display:inline;fill:#fcdc3e" />
      <circle
         cx="288.81247"
         cy="288.70709"
         r="273.39999"
         id="circle12"
         style="display:inline;fill:#002169" />
      <circle
         cx="288.81247"
         cy="288.70709"
         r="219.39999"
         class="y"
         id="circle14"
         style="display:inline;fill:#ffcd00" />
      <circle
         cx="288.81247"
         cy="288.70709"
         r="212.60001"
         id="circle31"
         style="display:inline;fill:#000000" />
      <g
         class="AE"
         id="g41"
         style="fill:#ffffff"
         transform="translate(-1.1874919,-0.99294247)">
        <path
           d="m 82,400.5 0.6,-0.3 3.7,7.2 -0.6,0.3 -0.4,-0.8 c -0.4,-0.8 -1.1,-1.2 -1.9,-1.3 -0.4,-0.1 -1.2,0.2 -2.3,0.8 l -8.2,4.2 c -2,1 -3.7,1.6 -5.1,1.8 -1.3,0.2 -2.7,-0.1 -4.1,-0.9 -1.4,-0.8 -2.6,-2.2 -3.7,-4.2 -1.1,-2.2 -1.6,-4.1 -1.4,-5.6 0.2,-1.5 0.8,-2.9 1.9,-4 0.7,-0.8 2.3,-1.8 4.8,-3 l 7.9,-4.1 c 1.2,-0.6 2,-1.2 2.2,-1.8 0.2,-0.5 0.1,-1.2 -0.3,-2 l -0.4,-0.8 0.6,-0.3 4.5,8.8 -0.6,0.3 -0.4,-0.8 c -0.4,-0.8 -1,-1.3 -1.7,-1.4 -0.5,-0.1 -1.3,0.2 -2.4,0.8 l -8.9,4.5 c -0.8,0.4 -1.7,0.9 -2.6,1.6 -0.9,0.7 -1.6,1.3 -2,2 -0.4,0.7 -0.6,1.5 -0.6,2.4 0,0.9 0.3,1.9 0.8,2.9 0.7,1.3 1.6,2.4 2.7,3.1 1.1,0.8 2.2,1.1 3.3,1 1.1,-0.1 2.7,-0.7 4.9,-1.8 l 8.2,-4.2 c 1.3,-0.6 2,-1.2 2.2,-1.6 0.2,-0.6 0.2,-1.3 -0.2,-2.1 z m 6,10 3.5,5.1 -6.4,21.2 10.9,-7.4 c 1.2,-0.8 1.8,-1.4 1.9,-1.9 0.2,-0.6 0,-1.3 -0.5,-2 l -0.4,-0.7 0.5,-0.3 4.5,6.6 -0.5,0.3 -0.5,-0.7 c -0.5,-0.8 -1.2,-1.2 -1.9,-1.2 -0.4,0 -1.2,0.4 -2.2,1.1 l -16,10.8 -0.3,-0.5 6.8,-22.8 -11.7,7.9 c -1.2,0.8 -1.8,1.4 -1.9,1.8 -0.2,0.6 0,1.3 0.5,2 l 0.5,0.7 -0.5,0.3 -4.5,-6.6 0.5,-0.3 0.4,0.7 c 0.5,0.8 1.2,1.2 1.9,1.2 0.4,0 1.2,-0.4 2.2,-1.1 L 88,415.8 c 0.3,-1 0.4,-1.7 0.4,-2.1 0,-0.4 -0.1,-1 -0.3,-1.6 -0.1,-0.3 -0.3,-0.8 -0.7,-1.3 z m 5.9,45.7 -0.5,0.4 -6.2,-7.6 0.5,-0.4 0.5,0.6 c 0.6,0.7 1.2,1.1 1.9,1.1 0.4,0 1.2,-0.5 2.3,-1.3 l 11.4,-9.3 c 0.9,-0.7 1.4,-1.3 1.6,-1.6 0.1,-0.3 0.2,-0.6 0.1,-1 -0.1,-0.6 -0.3,-1 -0.7,-1.5 l -0.5,-0.6 0.5,-0.4 6.2,7.6 -0.5,0.4 -0.5,-0.6 c -0.6,-0.7 -1.2,-1.1 -1.9,-1.1 -0.5,0 -1.2,0.4 -2.3,1.3 l -11.4,9.3 c -0.9,0.7 -1.4,1.3 -1.6,1.6 -0.1,0.3 -0.2,0.6 -0.1,1 0.1,0.5 0.3,1 0.7,1.4 z m 33.3,3.3 -3.7,3.9 -0.4,-0.5 c 0.6,-0.7 1,-1.3 1.1,-1.8 0.2,-0.7 0.3,-1.4 0.1,-2 -0.2,-0.6 -0.6,-1.3 -1.2,-2 l -2.2,-2.3 -12.7,12.2 c -1,1 -1.5,1.7 -1.6,2.1 0,0.6 0.2,1.3 0.9,1.9 l 0.5,0.6 -0.4,0.4 -6.7,-7 0.4,-0.4 0.6,0.6 c 0.7,0.7 1.4,1 2.1,0.9 0.4,-0.1 1.1,-0.6 2,-1.4 l 12.6,-12.1 -1.9,-2 c -0.7,-0.8 -1.3,-1.3 -1.7,-1.5 -0.6,-0.3 -1.2,-0.3 -1.9,-0.2 -0.7,0.1 -1.5,0.5 -2.3,1.2 l -0.4,-0.5 4,-3.5 z m 7.5,8.4 -5.8,6.9 3.8,3.2 c 1,0.8 1.8,1.3 2.4,1.2 0.8,0 1.6,-0.5 2.5,-1.4 l 0.5,0.4 -5.1,6.1 -0.5,-0.4 c 0.6,-1 0.9,-1.6 1,-1.9 0.1,-0.4 0,-0.9 -0.2,-1.3 -0.2,-0.5 -0.7,-1 -1.4,-1.6 l -3.8,-3.2 -4.9,5.7 c -0.7,0.8 -1,1.3 -1.1,1.5 -0.1,0.2 -0.1,0.5 0,0.7 0.1,0.2 0.4,0.6 0.9,1 l 3,2.5 c 1,0.8 1.8,1.4 2.3,1.6 0.6,0.2 1.2,0.3 2,0.3 1,-0.1 2.2,-0.4 3.7,-1 l 0.5,0.4 -5.2,3.1 -13.4,-11.4 0.4,-0.5 0.6,0.5 c 0.4,0.3 0.9,0.6 1.4,0.7 0.4,0.1 0.8,0 1.1,-0.1 0.3,-0.2 0.9,-0.7 1.6,-1.6 l 9.6,-11.3 c 0.9,-1.1 1.4,-1.9 1.4,-2.3 0,-0.6 -0.4,-1.2 -1.1,-1.8 l -0.6,-0.5 0.4,-0.5 13.4,11.4 -3,4 -0.5,-0.4 c 0.6,-1.1 0.9,-1.9 1,-2.4 0.1,-0.5 0,-1.1 -0.3,-1.6 -0.2,-0.4 -0.8,-1 -1.6,-1.7 z m 0.7,28.6 0.4,-0.5 0.7,0.5 c 0.8,0.5 1.5,0.7 2.2,0.4 0.4,-0.2 1,-0.8 1.7,-1.9 l 8.3,-12.2 c 0.8,-1.2 1.2,-2 1.1,-2.5 -0.1,-0.7 -0.5,-1.2 -1.2,-1.7 l -0.7,-0.5 0.4,-0.5 7.7,5.2 c 2.8,1.9 4.8,3.7 5.8,5.3 1,1.6 1.5,3.5 1.4,5.6 -0.1,2.1 -0.8,4.1 -2.2,6.1 -1.8,2.6 -4.1,4.3 -6.9,5 -3.1,0.7 -6.5,-0.1 -10.2,-2.6 z m 6.3,2.3 c 1,1.1 1.9,1.9 2.7,2.4 2.2,1.5 4.5,1.9 6.9,1.4 2.5,-0.5 4.6,-2.1 6.3,-4.7 1.8,-2.6 2.5,-5.1 2.1,-7.6 -0.4,-2.5 -1.7,-4.5 -3.9,-6 -0.8,-0.6 -1.9,-1.1 -3.1,-1.5 z m 54.4,6 -3.4,7.2 -0.6,-0.3 c 0.5,-1.5 0.6,-2.7 0.6,-3.7 0,-1 -0.5,-2 -1.1,-2.9 -0.6,-0.9 -1.4,-1.6 -2.4,-2 -1.1,-0.5 -2.1,-0.6 -3.1,-0.3 -1,0.3 -1.7,0.9 -2.1,1.7 -0.3,0.6 -0.3,1.3 -0.2,2 0.3,1.1 1.3,2.8 3.1,5.2 l 2.8,4.2 c 0.4,0.9 0.7,1.8 0.7,2.7 0,0.9 -0.2,1.8 -0.5,2.6 -0.7,1.6 -2,2.6 -3.7,3.2 -1.7,0.6 -3.6,0.4 -5.5,-0.5 l -1.6,-0.9 c -0.3,-0.2 -0.9,-0.7 -1.7,-1.5 -0.8,-0.8 -1.4,-1.2 -1.7,-1.4 -0.3,-0.1 -0.5,-0.1 -0.7,-0.1 -0.2,0.1 -0.5,0.3 -0.8,0.8 l -0.6,-0.3 3.3,-7.1 0.6,0.3 c -0.4,1.6 -0.6,2.9 -0.5,3.8 0.1,0.9 0.5,1.9 1.2,2.8 0.7,0.9 1.6,1.6 2.7,2.2 1.3,0.6 2.4,0.7 3.5,0.4 1.1,-0.3 1.8,-0.9 2.2,-1.9 0.2,-0.5 0.3,-1.1 0.3,-1.7 0,-0.6 -0.2,-1.3 -0.6,-2.1 l -2.3,-3.5 -2.7,-4.1 c -0.5,-0.9 -0.7,-1.9 -0.8,-2.8 -0.1,-0.9 0.1,-1.8 0.5,-2.6 0.7,-1.5 1.9,-2.5 3.5,-3 1.6,-0.5 3.3,-0.4 5.1,0.4 1.1,0.5 2.1,1.3 3.1,2.4 0.4,0.5 0.8,0.8 1,0.9 0.3,0.1 0.5,0.1 0.8,0.1 0.2,-0.1 0.5,-0.3 0.9,-0.8 z m 23,9.3 -1.6,5.1 -0.6,-0.2 c 0.2,-0.9 0.3,-1.6 0.2,-2.1 -0.1,-0.7 -0.4,-1.3 -0.8,-1.8 -0.4,-0.5 -1.1,-0.9 -2,-1.2 l -3,-1.1 -5.9,16.4 c -0.5,1.3 -0.6,2.2 -0.5,2.6 0.2,0.6 0.8,1 1.6,1.3 l 0.7,0.3 -0.2,0.6 -9.1,-3.3 0.2,-0.6 0.8,0.3 c 0.9,0.3 1.7,0.3 2.2,-0.1 0.4,-0.3 0.7,-1 1.2,-2.2 l 5.9,-16.4 -2.6,-0.9 c -1,-0.4 -1.7,-0.5 -2.2,-0.6 -0.6,0 -1.2,0.2 -1.8,0.6 -0.6,0.4 -1.1,1.1 -1.5,2.1 l -0.6,-0.2 2.1,-4.9 z m 13.1,19.2 -8.6,-2.1 -2.4,3.1 c -0.6,0.8 -0.9,1.4 -1,1.8 -0.1,0.3 0,0.7 0.3,1 0.3,0.3 0.9,0.7 2,1 l -0.2,0.6 -7,-1.7 0.2,-0.6 c 1,0.1 1.6,0 2,-0.2 0.7,-0.4 1.6,-1.3 2.6,-2.7 l 12.4,-16.3 0.6,0.1 3.1,20.4 c 0.2,1.6 0.6,2.7 1,3.3 0.4,0.6 1,1 1.9,1.3 l -0.2,0.6 -8.7,-2.2 0.2,-0.6 c 0.9,0.2 1.5,0.2 1.9,0 0.4,-0.2 0.6,-0.4 0.7,-0.8 0.1,-0.5 0.1,-1.3 -0.1,-2.4 z m -0.1,-1.3 -1.5,-9.9 -6.1,8 z m 32.9,-8.3 -0.5,5.3 -0.6,-0.1 c 0,-1 -0.1,-1.6 -0.2,-2.1 -0.3,-0.7 -0.6,-1.2 -1.2,-1.6 -0.5,-0.4 -1.3,-0.7 -2.2,-0.8 l -3.2,-0.5 -2.5,17.3 c -0.2,1.4 -0.2,2.3 0.1,2.7 a 2.69,2.69 0 0 0 1.8,1 l 0.8,0.1 -0.1,0.6 -9.6,-1.4 0.1,-0.6 0.8,0.1 c 1,0.1 1.7,0 2.2,-0.6 0.3,-0.3 0.5,-1.1 0.7,-2.4 l 2.5,-17.3 -2.7,-0.4 c -1.1,-0.2 -1.8,-0.2 -2.3,-0.1 -0.6,0.1 -1.2,0.5 -1.7,1 -0.5,0.5 -0.9,1.3 -1.1,2.3 l -0.6,-0.1 1,-5.3 z m 11.1,2 -0.4,9 5,0.2 c 1.3,0.1 2.2,-0.1 2.6,-0.5 0.6,-0.5 1,-1.4 1.1,-2.7 h 0.6 l -0.3,7.9 h -0.6 c -0.1,-1.1 -0.2,-1.8 -0.4,-2.2 -0.2,-0.4 -0.5,-0.7 -1,-1 a 5.58,5.58 0 0 0 -2.1,-0.4 l -5,-0.2 -0.3,7.5 c 0,1 0,1.6 0.1,1.8 0.1,0.2 0.2,0.4 0.4,0.5 0.2,0.1 0.6,0.2 1.3,0.2 l 3.9,0.2 c 1.3,0.1 2.2,0 2.8,-0.1 0.6,-0.2 1.2,-0.5 1.7,-1 0.7,-0.7 1.5,-1.7 2.3,-3.1 h 0.7 l -2.2,5.6 -17.6,-0.8 V 546 h 0.8 c 0.5,0 1.1,-0.1 1.5,-0.3 a 1.56,1.56 0 0 0 0.8,-0.8 c 0.1,-0.4 0.2,-1.1 0.3,-2.2 l 0.7,-14.8 c 0.1,-1.4 0,-2.3 -0.3,-2.7 -0.4,-0.5 -1,-0.7 -2,-0.8 h -0.8 v -0.6 l 17.6,0.8 v 5 h -0.7 c -0.2,-1.2 -0.4,-2 -0.7,-2.5 -0.3,-0.5 -0.7,-0.8 -1.2,-1.1 -0.4,-0.2 -1.2,-0.3 -2.4,-0.4 z m 31.9,-2 0.4,7.9 h -0.6 c -0.3,-1.5 -0.7,-2.7 -1.3,-3.6 -0.6,-0.9 -1.3,-1.5 -2.3,-2 -1,-0.5 -2,-0.7 -3,-0.6 -1.2,0.1 -2.1,0.5 -2.8,1.2 -0.7,0.8 -1.1,1.6 -1,2.5 0,0.7 0.3,1.3 0.8,1.9 0.7,0.8 2.4,1.8 5.1,3.1 2.2,1 3.7,1.8 4.5,2.4 0.8,0.6 1.4,1.3 1.9,2.1 0.5,0.8 0.7,1.7 0.8,2.6 0.1,1.7 -0.5,3.2 -1.8,4.6 -1.3,1.3 -3,2 -5.1,2.1 -0.7,0 -1.3,0 -1.9,-0.1 -0.4,0 -1.1,-0.2 -2.2,-0.5 -1.1,-0.3 -1.8,-0.4 -2.1,-0.4 -0.3,0 -0.5,0.1 -0.7,0.3 -0.2,0.2 -0.3,0.5 -0.3,1.1 h -0.6 l -0.4,-7.8 h 0.6 c 0.4,1.6 0.8,2.8 1.4,3.6 0.5,0.8 1.3,1.4 2.4,1.9 1,0.5 2.2,0.7 3.4,0.6 1.4,-0.1 2.5,-0.5 3.3,-1.3 0.8,-0.8 1.1,-1.7 1.1,-2.7 0,-0.6 -0.2,-1.1 -0.5,-1.7 -0.3,-0.6 -0.8,-1.1 -1.5,-1.5 l -3.7,-2 -4.3,-2.4 c -0.9,-0.6 -1.5,-1.3 -2,-2.1 -0.5,-0.8 -0.7,-1.6 -0.8,-2.6 -0.1,-1.6 0.5,-3.1 1.7,-4.3 1.2,-1.2 2.8,-1.9 4.7,-2 1.2,-0.1 2.5,0.2 3.9,0.7 0.6,0.2 1.1,0.4 1.4,0.4 0.3,0 0.5,-0.1 0.7,-0.3 0.2,-0.2 0.3,-0.5 0.4,-1.1 z m 30.6,-4.5 c 2.9,-0.6 5.6,0 8.2,1.7 2.6,1.8 4.2,4.3 4.9,7.6 0.7,3.4 0.2,6.4 -1.4,9.1 -1.6,2.7 -4,4.4 -7.1,5 -3.1,0.6 -5.9,0.1 -8.4,-1.7 -2.6,-1.7 -4.2,-4.4 -4.9,-7.8 -0.7,-3.5 -0.1,-6.7 1.8,-9.4 1.6,-2.4 3.9,-3.9 6.9,-4.5 z m -0.1,1.3 c -2,0.4 -3.4,1.5 -4.3,3.2 -1.1,2.2 -1.3,5 -0.6,8.6 0.8,3.6 2.1,6.3 4.1,7.9 1.5,1.2 3.3,1.7 5.2,1.2 2.1,-0.4 3.7,-1.6 4.7,-3.5 1,-1.9 1.2,-4.7 0.4,-8.2 -0.8,-3.8 -2.2,-6.5 -4.1,-8.1 -1.4,-1.1 -3.3,-1.5 -5.4,-1.1 z m 20.9,-4.8 2.7,8.6 4,-1.3 c 0.9,-0.3 1.5,-0.7 1.8,-1.2 0.3,-0.5 0.3,-1.4 0.1,-2.7 l 0.6,-0.2 2.3,7.4 -0.6,0.2 c -0.3,-0.8 -0.6,-1.4 -0.9,-1.8 -0.3,-0.3 -0.7,-0.5 -1.2,-0.6 -0.4,-0.1 -1,0 -1.7,0.2 l -4,1.3 2.2,6.8 c 0.4,1.1 0.7,1.8 0.9,2.1 0.2,0.2 0.5,0.4 0.9,0.5 0.6,0.1 1.1,0.1 1.6,-0.1 l 0.8,-0.3 0.2,0.6 -9.3,3 -0.2,-0.6 0.8,-0.2 c 0.9,-0.3 1.5,-0.8 1.7,-1.4 0.1,-0.4 0,-1.3 -0.4,-2.6 l -4.5,-14.1 c -0.4,-1.1 -0.7,-1.8 -0.9,-2.1 -0.2,-0.2 -0.5,-0.4 -0.9,-0.5 -0.5,-0.1 -1.1,-0.1 -1.6,0.1 l -0.8,0.2 -0.2,-0.6 16.2,-5.2 1.7,4.7 -0.6,0.2 c -0.6,-0.9 -1.2,-1.6 -1.7,-1.9 -0.5,-0.4 -1.1,-0.6 -1.7,-0.6 -0.6,0 -1.5,0.1 -2.6,0.5 z m 46.1,-3.9 -7.9,4 0.2,3.9 c 0.1,1 0.2,1.6 0.4,2 a 1.22,1.22 0 0 0 0.9,0.6 c 0.4,0.1 1.1,-0.1 2.1,-0.5 l 0.3,0.6 -6.4,3.2 -0.3,-0.6 c 0.8,-0.6 1.2,-1.1 1.4,-1.4 0.3,-0.7 0.3,-2 0.2,-3.8 l -1.3,-20.4 0.5,-0.3 15.7,13.4 c 1.3,1.1 2.2,1.7 2.9,1.9 0.7,0.2 1.4,0.1 2.3,-0.3 l 0.3,0.6 -8,4.1 -0.3,-0.6 c 0.8,-0.5 1.3,-0.9 1.4,-1.2 a 1.08,1.08 0 0 0 0,-1.1 c -0.2,-0.4 -0.8,-1 -1.7,-1.8 z m -0.9,-0.9 -7.6,-6.5 0.6,10 z m 29.4,-7.2 -18.1,-10.9 8.6,12.6 c 0.8,1.2 1.4,1.8 1.9,1.9 0.6,0.2 1.3,0 2,-0.5 l 0.7,-0.5 0.4,0.5 -6.6,4.5 -0.4,-0.5 0.7,-0.5 c 0.8,-0.5 1.2,-1.2 1.2,-1.9 0,-0.4 -0.4,-1.2 -1.1,-2.2 l -8.4,-12.3 c -0.6,-0.8 -1.1,-1.4 -1.5,-1.6 -0.3,-0.2 -0.7,-0.2 -1.2,-0.2 -0.5,0.1 -1.1,0.3 -1.9,0.9 l -0.4,-0.5 5.3,-3.6 16.9,10.1 -3.3,-19.4 5.3,-3.6 0.4,0.5 -0.7,0.4 c -0.8,0.6 -1.2,1.2 -1.2,1.9 0,0.4 0.4,1.2 1.1,2.2 l 8.4,12.3 c 0.8,1.2 1.4,1.8 1.9,1.9 0.6,0.2 1.3,0 2,-0.5 l 0.7,-0.4 0.4,0.5 -8,5.5 -0.4,-0.5 0.7,-0.5 c 0.8,-0.6 1.2,-1.2 1.2,-1.9 0,-0.4 -0.4,-1.2 -1.1,-2.2 l -8.6,-12.6 3.5,20.8 z m 9.1,-34 6,6.8 3.8,-3.3 c 1,-0.9 1.5,-1.6 1.6,-2.2 0.1,-0.8 -0.3,-1.7 -1.1,-2.7 l 0.5,-0.4 5.2,6 -0.5,0.4 c -0.9,-0.7 -1.4,-1.2 -1.8,-1.3 -0.4,-0.2 -0.9,-0.2 -1.4,0 -0.5,0.1 -1.1,0.5 -1.8,1.1 l -3.8,3.3 5,5.7 c 0.7,0.8 1.1,1.2 1.3,1.3 0.2,0.1 0.4,0.1 0.7,0.1 0.3,0 0.6,-0.3 1.1,-0.7 l 2.9,-2.6 c 1,-0.9 1.6,-1.5 1.9,-2.1 0.3,-0.5 0.5,-1.2 0.6,-1.9 0.1,-1 -0.1,-2.2 -0.5,-3.8 l 0.5,-0.4 2.3,5.6 -13.2,11.6 -0.4,-0.5 0.6,-0.5 c 0.4,-0.4 0.7,-0.8 0.9,-1.3 a 1.08,1.08 0 0 0 0,-1.1 c -0.2,-0.4 -0.6,-1 -1.3,-1.8 l -9.8,-11.2 c -1,-1.1 -1.7,-1.7 -2.1,-1.7 -0.6,-0.1 -1.3,0.2 -2,0.8 l -0.6,0.5 -0.4,-0.5 13.2,-11.6 3.5,3.6 -0.5,0.4 c -1,-0.7 -1.7,-1.2 -2.2,-1.3 -0.5,-0.1 -1.1,-0.1 -1.6,0.1 -0.4,0.2 -1.1,0.6 -2,1.4 z m 43.8,-13.1 -4.2,4.5 -13.1,-1.6 c -0.4,0.4 -0.7,0.8 -0.9,1 l -0.3,0.3 -0.4,0.4 4.9,4.5 c 1.1,1 1.8,1.5 2.3,1.5 0.7,0 1.3,-0.3 1.9,-0.9 l 0.6,-0.7 0.5,0.4 -6.7,7.2 -0.5,-0.4 0.6,-0.6 c 0.7,-0.7 0.9,-1.4 0.7,-2.2 -0.1,-0.4 -0.6,-1.1 -1.6,-1.9 l -10.8,-10 c -1.1,-1 -1.8,-1.5 -2.3,-1.5 -0.7,0 -1.3,0.3 -1.9,0.9 l -0.6,0.6 -0.5,-0.4 5.7,-6.1 c 1.7,-1.8 3,-3 4,-3.6 a 5.73,5.73 0 0 1 3.4,-0.8 c 1.2,0.1 2.3,0.5 3.3,1.4 1,1 1.6,2.1 1.7,3.5 0.1,1.4 -0.3,2.9 -1.3,4.6 l 8,1 c 1.8,0.2 3.2,0.2 4.1,0 0.9,-0.2 1.8,-0.8 2.8,-1.6 z m -19.6,3.9 c 0.1,-0.2 0.3,-0.3 0.4,-0.4 l 0.3,-0.3 c 1.5,-1.6 2.3,-3.1 2.3,-4.6 0.1,-1.5 -0.4,-2.7 -1.5,-3.7 -1,-1 -2.2,-1.4 -3.5,-1.4 -1.3,0 -2.4,0.6 -3.4,1.7 -0.4,0.5 -1,1.2 -1.6,2.2 z"
           id="path33"
           inkscape:connector-curvature="0" />
        <path
           d="m 496.3,443.6 0.5,0.4 -6,7.7 -0.5,-0.4 0.5,-0.6 c 0.6,-0.7 0.8,-1.5 0.6,-2.1 -0.1,-0.4 -0.7,-1.1 -1.8,-1.9 l -11.7,-9.1 c -0.9,-0.7 -1.6,-1.1 -1.9,-1.2 -0.3,-0.1 -0.6,0 -1,0.1 -0.5,0.2 -0.9,0.6 -1.3,1 l -0.5,0.6 -0.5,-0.4 6,-7.7 0.5,0.4 -0.5,0.7 c -0.6,0.7 -0.8,1.4 -0.6,2.1 0.1,0.4 0.7,1.1 1.8,1.9 l 11.7,9.1 c 0.9,0.7 1.6,1.1 1.9,1.2 0.3,0.1 0.6,0 1,-0.1 0.5,-0.2 0.9,-0.5 1.3,-1 z m -4.9,-33.3 6.8,3.8 -0.3,0.4 c -2.3,-0.7 -4.3,-0.8 -5.8,-0.3 -1.6,0.5 -2.8,1.5 -3.8,3.1 -0.8,1.3 -1.3,2.6 -1.3,4.1 0,1.4 0.5,2.9 1.5,4.4 1,1.5 2.6,3 4.7,4.3 1.7,1.1 3.4,1.8 5,2.1 1.6,0.3 3.1,0.1 4.6,-0.6 1.5,-0.7 2.6,-1.7 3.5,-3.1 0.8,-1.2 1.3,-2.5 1.4,-3.8 0.1,-1.3 -0.3,-3 -1.1,-5.2 l 0.6,-0.3 c 1.1,2.1 1.6,4 1.5,5.8 0,1.8 -0.6,3.6 -1.8,5.3 -2.1,3.2 -4.9,4.9 -8.3,5.1 -2.6,0.2 -5.1,-0.5 -7.4,-2.1 -1.9,-1.2 -3.4,-2.8 -4.4,-4.7 -1,-1.9 -1.5,-3.9 -1.4,-6 0.1,-2.1 0.7,-4 1.9,-5.8 0.9,-1.4 2.1,-2.5 3.7,-3.4 l 0.9,-0.6 c 0.2,-0.3 0.2,-0.5 0.2,-0.8 -0.1,-0.4 -0.3,-0.8 -0.7,-1.2 z m 23,-9.7 -4,7.9 2.5,3 c 0.6,0.7 1.1,1.2 1.5,1.4 a 0.91,0.91 0 0 0 1,0 c 0.3,-0.2 0.9,-0.7 1.4,-1.7 l 0.6,0.3 -3.3,6.4 -0.6,-0.3 c 0.3,-0.9 0.4,-1.6 0.3,-1.9 -0.2,-0.8 -0.9,-1.8 -2.1,-3.2 l -13.1,-15.7 0.3,-0.5 20.5,1.6 c 1.7,0.1 2.8,0.1 3.4,-0.2 0.6,-0.3 1.2,-0.8 1.7,-1.6 l 0.6,0.3 -4.1,8 -0.6,-0.3 c 0.4,-0.8 0.5,-1.4 0.4,-1.8 -0.1,-0.4 -0.3,-0.7 -0.6,-0.9 -0.4,-0.2 -1.2,-0.4 -2.4,-0.5 z m -1.3,-0.1 -10,-0.8 6.4,7.7 z M 61.8,309.9 h -1 v -1.3 c 0,-1.5 -0.5,-2.6 -1.5,-3.2 -0.6,-0.4 -1.9,-0.6 -3.9,-0.5 l -23.1,0.4 c -2.2,0 -3.6,0.3 -4.2,0.8 -0.8,0.7 -1.1,1.7 -1.1,3.1 v 1.3 h -1 l -0.2,-14.6 c -0.1,-5.3 0.5,-9.4 1.6,-12.2 1.2,-2.8 3.2,-5.1 6,-6.8 2.8,-1.7 6.1,-2.6 9.8,-2.7 5,-0.1 9.2,1.4 12.5,4.3 3.8,3.3 5.7,8.5 5.8,15.4 z m -2.7,-10.1 c 0.5,-2.2 0.7,-4.1 0.6,-5.6 -0.1,-4.1 -1.6,-7.4 -4.5,-10.1 -2.9,-2.6 -6.8,-3.9 -11.7,-3.8 -4.9,0.1 -8.8,1.5 -11.6,4.2 -2.8,2.7 -4.2,6.2 -4.1,10.4 0,1.6 0.3,3.4 0.9,5.4 z m -28.9,-46.3 14,2.2 1.2,-7.8 c 0.3,-2 0.2,-3.4 -0.3,-4.2 -0.7,-1 -2,-1.8 -4,-2.2 l 0.2,-1 12.3,2 -0.2,1 c -1.8,0 -2.9,0 -3.4,0.2 -0.7,0.2 -1.2,0.7 -1.7,1.3 -0.5,0.7 -0.8,1.7 -1,3.2 l -1.3,7.8 11.6,1.8 c 1.6,0.2 2.5,0.3 2.9,0.2 0.4,-0.1 0.7,-0.3 0.9,-0.6 0.3,-0.3 0.5,-1 0.6,-1.9 l 1,-6 c 0.3,-2 0.4,-3.5 0.3,-4.4 -0.1,-0.9 -0.5,-1.9 -1.2,-2.9 -0.9,-1.2 -2.4,-2.6 -4.3,-4.1 l 0.2,-1 8.4,4.5 -4.4,27.3 -1,-0.2 0.2,-1.2 c 0.1,-0.8 0.1,-1.7 -0.2,-2.5 -0.2,-0.6 -0.5,-1 -1.1,-1.3 -0.5,-0.3 -1.6,-0.6 -3.4,-0.8 l -22.9,-3.6 c -2.2,-0.4 -3.7,-0.3 -4.2,0 -0.8,0.5 -1.3,1.5 -1.5,3 l -0.2,1.2 -1,-0.2 4.3,-27.3 7.8,0.8 -0.2,1 c -1.9,0.1 -3.3,0.3 -4,0.6 -0.8,0.3 -1.4,0.9 -1.9,1.7 -0.4,0.7 -0.7,1.9 -1,3.6 z m 25.1,-35 9.9,3.2 c 2.1,0.7 3.5,0.9 4.2,0.6 0.9,-0.4 1.6,-1.2 2,-2.5 l 0.4,-1.3 0.9,0.3 -4.7,14.6 -0.9,-0.3 0.4,-1.3 c 0.5,-1.4 0.3,-2.6 -0.4,-3.5 -0.4,-0.5 -1.6,-1.1 -3.5,-1.7 l -22,-7.1 c -2.1,-0.7 -3.5,-0.9 -4.2,-0.6 -0.9,0.4 -1.6,1.3 -2,2.6 l -0.4,1.3 -0.9,-0.3 4,-12.5 c 1,-3 2.1,-5.3 3.3,-6.9 1.2,-1.6 2.7,-2.7 4.6,-3.4 1.9,-0.7 3.8,-0.8 5.9,-0.1 2.8,0.9 4.7,2.5 5.9,4.9 1.2,2.4 1.2,5.3 0.1,8.6 l -1,2.6 z M 53.9,218 c 0.5,-0.8 0.8,-1.6 1.1,-2.2 l 0.7,-1.7 c 0.6,-1.7 0.4,-3.5 -0.6,-5.2 -0.9,-1.7 -2.5,-2.9 -4.6,-3.6 -1.5,-0.5 -2.9,-0.6 -4.4,-0.4 -1.5,0.2 -2.7,0.7 -3.7,1.6 -1,0.9 -1.7,2.1 -2.2,3.5 -0.3,0.9 -0.5,2 -0.6,3.4 z m 22.3,-38.4 -6.1,12.4 4,4.7 c 1,1.1 1.8,1.9 2.4,2.2 0.5,0.2 1,0.2 1.6,-0.1 0.6,-0.3 1.3,-1.2 2.2,-2.7 l 0.9,0.4 -4.9,10.1 -0.9,-0.4 c 0.4,-1.5 0.5,-2.5 0.4,-3.1 -0.4,-1.2 -1.5,-2.8 -3.3,-4.9 L 51.6,174 l 0.4,-0.8 32.2,1.9 c 2.6,0.2 4.4,0 5.4,-0.4 1,-0.4 1.9,-1.3 2.6,-2.5 l 0.9,0.4 -6.2,12.7 -0.9,-0.4 c 0.6,-1.3 0.8,-2.3 0.6,-2.9 -0.1,-0.6 -0.5,-1.1 -1,-1.3 -0.7,-0.3 -1.9,-0.6 -3.8,-0.7 z m -2.1,-0.2 -15.6,-0.9 10.2,11.9 z m 43.4,-40.5 -5.7,7.7 -20.6,-0.3 -1.3,1.8 c -0.1,0.2 -0.3,0.4 -0.5,0.6 -0.2,0.2 -0.3,0.4 -0.5,0.6 l 8.3,6.2 c 1.8,1.3 3.1,2 3.8,1.9 1,-0.1 1.9,-0.6 2.7,-1.7 l 0.8,-1.1 0.8,0.6 -9.1,12.3 -0.8,-0.6 0.8,-1.1 c 0.9,-1.2 1.2,-2.4 0.7,-3.5 -0.2,-0.6 -1.1,-1.5 -2.8,-2.8 L 75.6,145.7 c -1.8,-1.3 -3.1,-2 -3.8,-1.9 -1,0.1 -1.9,0.7 -2.8,1.8 l -0.8,1.1 -0.8,-0.6 7.8,-10.5 c 2.3,-3 4.2,-5.1 5.7,-6.2 1.5,-1.1 3.2,-1.7 5.2,-1.9 1.9,-0.1 3.7,0.4 5.4,1.7 1.8,1.3 2.9,3 3.3,5.1 0.4,2.1 0,4.6 -1.2,7.4 l 12.6,0.2 c 2.9,0 5,-0.2 6.4,-0.7 1.3,-0.5 2.7,-1.5 4,-2.9 z m -29.9,9.4 c 0.2,-0.3 0.4,-0.5 0.5,-0.7 0.2,-0.2 0.3,-0.4 0.4,-0.5 2,-2.7 3,-5.2 2.8,-7.5 -0.2,-2.3 -1.1,-4.1 -3,-5.4 -1.8,-1.3 -3.7,-1.9 -5.6,-1.6 -2,0.3 -3.6,1.4 -5,3.2 -0.6,0.8 -1.3,2 -2.1,3.6 z m 27.7,-57.2 6.2,5.7 -0.7,0.7 c -1.2,-0.9 -2.1,-1.5 -2.8,-1.7 -1.1,-0.3 -2.1,-0.4 -3.1,-0.1 -1,0.3 -2,1 -3.1,2 l -3.6,3.5 19.2,19.5 c 1.5,1.6 2.7,2.4 3.4,2.4 1,0.1 2,-0.4 3,-1.4 l 0.9,-0.9 0.7,0.7 -10.8,10.6 -0.7,-0.7 0.9,-0.9 c 1.1,-1.1 1.5,-2.1 1.3,-3.2 -0.1,-0.7 -0.9,-1.7 -2.3,-3.2 l -19.2,-19.5 -3.1,3 c -1.2,1.2 -2,2.1 -2.3,2.8 -0.4,0.9 -0.5,1.9 -0.3,3 0.2,1.1 0.8,2.3 1.9,3.6 l -0.7,0.7 -5.6,-6.3 z m 47.3,9 -28.1,-17.5 13.2,19.9 c 1.2,1.8 2.2,2.8 2.9,3 0.9,0.3 2,0 3.2,-0.8 l 1.1,-0.7 0.5,0.8 -10.4,6.9 -0.5,-0.8 1.1,-0.7 c 1.3,-0.8 1.9,-1.8 1.9,-2.9 0,-0.7 -0.5,-1.9 -1.6,-3.5 L 133,84.3 c -0.9,-1.3 -1.6,-2.2 -2.3,-2.6 -0.5,-0.3 -1.1,-0.4 -1.8,-0.3 -0.7,0.1 -1.7,0.5 -2.9,1.3 l -0.5,-0.8 8.4,-5.6 26.3,16.2 -4.8,-30.4 8.4,-5.6 0.5,0.8 -1,0.7 c -1.3,0.8 -1.9,1.8 -1.9,2.9 0,0.7 0.5,1.9 1.6,3.5 l 12.9,19.5 c 1.2,1.8 2.2,2.8 2.9,3 0.9,0.3 2,0 3.2,-0.8 l 1,-0.7 0.5,0.8 -12.7,8.4 -0.8,-0.6 1.1,-0.7 c 1.3,-0.8 1.9,-1.8 1.9,-2.9 0,-0.7 -0.5,-1.9 -1.6,-3.5 L 158.2,67 l 5.1,32.7 z m 23.1,-51 5.4,13.1 7.3,-3 c 1.9,-0.8 3,-1.6 3.4,-2.4 0.5,-1.1 0.5,-2.6 -0.2,-4.5 l 0.9,-0.4 4.7,11.5 -0.9,0.4 c -0.9,-1.5 -1.5,-2.5 -2,-2.8 -0.5,-0.4 -1.2,-0.7 -2,-0.8 -0.8,-0.1 -1.9,0.2 -3.3,0.8 l -7.3,3 4.5,10.9 c 0.6,1.5 1,2.3 1.3,2.6 0.3,0.3 0.6,0.4 1,0.5 0.4,0.1 1.1,-0.1 2,-0.5 l 5.6,-2.3 c 1.9,-0.8 3.2,-1.5 3.9,-2.1 0.7,-0.6 1.3,-1.5 1.8,-2.5 0.6,-1.4 1,-3.4 1.2,-5.8 l 1,-0.4 0.6,9.5 -25.5,10.5 -0.4,-0.9 1.2,-0.5 c 0.8,-0.3 1.4,-0.8 2,-1.5 0.4,-0.5 0.6,-1 0.6,-1.6 0,-0.6 -0.4,-1.7 -1,-3.3 l -8.8,-21.5 c -0.9,-2.1 -1.6,-3.3 -2.2,-3.6 -0.9,-0.4 -2,-0.3 -3.3,0.2 l -1.2,0.5 -0.4,-0.9 25.4,-10.6 3.3,7.1 -1,0.4 c -1.1,-1.6 -1.9,-2.6 -2.6,-3.1 -0.7,-0.5 -1.5,-0.7 -2.5,-0.7 -0.8,0 -1.9,0.4 -3.6,1 z m 27.9,-13.1 9.5,-2.1 27.1,21.5 -4.4,-20.1 c -0.5,-2.1 -1,-3.4 -1.6,-3.9 -0.8,-0.6 -1.9,-0.7 -3.3,-0.4 l -1.2,0.3 -0.2,-1 12.2,-2.7 0.2,1 -1.2,0.3 c -1.5,0.3 -2.4,1 -2.9,2 -0.3,0.6 -0.2,1.9 0.3,3.9 l 6.4,29.4 -0.9,0.2 -29.2,-23.1 4.7,21.5 c 0.5,2.1 1,3.4 1.6,3.9 0.8,0.6 1.9,0.7 3.3,0.4 l 1.2,-0.3 0.2,1 -12.2,2.7 -0.2,-1 1.2,-0.3 c 1.5,-0.3 2.5,-1 2.9,-2 0.3,-0.6 0.2,-1.9 -0.3,-3.9 L 221.5,39 c -1.3,-1 -2.2,-1.6 -2.8,-1.8 -0.6,-0.3 -1.5,-0.4 -2.5,-0.6 -0.5,0 -1.3,0 -2.3,0.3 z m 80.3,-10.8 0.7,8.4 h -1 c -0.3,-1.5 -0.6,-2.5 -0.9,-3.1 -0.6,-1 -1.3,-1.7 -2.3,-2.2 -0.9,-0.4 -2.1,-0.6 -3.6,-0.6 l -5,0.2 1.1,27.3 c 0.1,2.2 0.4,3.6 0.9,4.1 0.7,0.7 1.7,1 3.1,1 l 1.2,-0.1 v 1 L 273,61.8 v -1 l 1.3,-0.1 c 1.5,-0.1 2.6,-0.6 3.2,-1.5 0.4,-0.6 0.5,-1.9 0.4,-3.9 l -1.1,-27.3 -4.3,0.2 c -1.7,0.1 -2.8,0.2 -3.5,0.5 -0.9,0.4 -1.7,1 -2.3,2 -0.6,1 -0.9,2.3 -1,3.9 h -1 l 0.1,-8.4 z m 53.9,5.9 c 4.5,1 8.1,3.6 10.6,7.8 2.6,4.2 3.3,8.8 2.1,14 -1.2,5.3 -3.8,9.3 -7.9,12.1 -4.1,2.8 -8.6,3.6 -13.3,2.6 -4.8,-1.1 -8.5,-3.7 -11,-7.8 -2.5,-4.1 -3.2,-8.9 -2,-14.3 1.2,-5.5 4.1,-9.6 8.7,-12.3 4,-2.5 8.2,-3.1 12.8,-2.1 z m -0.9,1.8 c -3.1,-0.7 -5.9,-0.1 -8.3,1.8 -3,2.4 -5.1,6.3 -6.3,11.9 -1.3,5.7 -1,10.4 0.7,14 1.4,2.7 3.6,4.5 6.6,5.1 3.3,0.7 6.3,0 9,-2 2.7,-2.1 4.7,-5.9 5.9,-11.4 1.3,-6 1.1,-10.7 -0.6,-14.1 -1.3,-2.9 -3.7,-4.6 -7,-5.3 z m 36.8,11.8 -5.2,13 6,2.4 c 1.4,0.6 2.5,0.7 3.4,0.3 0.9,-0.4 1.8,-1.4 2.7,-3.1 l 0.9,0.4 -4.4,11.3 -0.9,-0.4 c 0.5,-1.3 0.7,-2.3 0.6,-3 -0.1,-0.7 -0.3,-1.4 -0.8,-1.9 -0.4,-0.5 -1.2,-1 -2.3,-1.5 l -6,-2.4 -4.2,10.4 c -0.7,1.7 -1,2.8 -1,3.5 0,0.5 0.2,1 0.6,1.5 0.6,0.7 1.2,1.2 2,1.5 l 1.2,0.5 -0.4,0.9 -14.2,-5.7 0.4,-0.9 1.2,0.5 c 1.4,0.5 2.5,0.5 3.5,0 0.6,-0.4 1.3,-1.5 2.1,-3.5 l 8.6,-21.4 c 0.7,-1.7 1,-2.8 1,-3.5 0,-0.5 -0.2,-1 -0.6,-1.5 -0.5,-0.7 -1.2,-1.2 -2,-1.5 l -1.2,-0.5 0.4,-0.9 24.7,9.9 -2.6,7.4 -0.9,-0.3 c 0.2,-1.7 0.2,-3.1 -0.1,-4 -0.3,-1 -0.8,-1.8 -1.4,-2.4 -0.7,-0.7 -1.9,-1.3 -3.6,-2 z m 26.8,50 0.5,-0.7 1.1,0.8 c 1.2,0.9 2.4,1.1 3.4,0.7 0.7,-0.2 1.6,-1.2 2.8,-2.8 L 432,74.1 c 1.3,-1.8 2,-3.1 1.9,-3.8 -0.1,-1 -0.7,-1.9 -1.8,-2.7 l -1.1,-0.8 0.6,-0.8 11.7,8.6 c 4.3,3.2 7.2,6.1 8.7,8.7 1.5,2.6 2.1,5.6 1.8,8.9 -0.3,3.3 -1.6,6.4 -3.8,9.4 -3,4 -6.6,6.5 -11,7.3 -4.9,1 -10.2,-0.6 -15.8,-4.7 z m 9.7,4 c 1.5,1.7 2.9,3 4.1,3.9 3.3,2.4 6.9,3.3 10.7,2.6 3.9,-0.7 7.3,-3 10.2,-7 2.9,-4 4.2,-7.9 3.7,-11.8 -0.5,-3.9 -2.4,-7.1 -5.8,-9.6 -1.3,-0.9 -2.9,-1.8 -4.8,-2.6 z m 54.4,4.7 -10.1,9.8 5.5,5.6 c 1.4,1.5 2.6,2.2 3.5,2.3 1.2,0.1 2.6,-0.5 4.1,-1.9 l 0.7,0.7 -8.9,8.7 -0.7,-0.7 c 1.1,-1.4 1.7,-2.3 1.9,-2.9 a 3.75,3.75 0 0 0 0,-2.1 c -0.2,-0.8 -0.9,-1.7 -1.9,-2.8 l -5.5,-5.6 -8.5,8.2 c -1.1,1.1 -1.8,1.8 -1.9,2.2 -0.1,0.3 -0.2,0.7 -0.1,1.1 0.1,0.4 0.5,0.9 1.2,1.6 l 4.2,4.4 c 1.4,1.5 2.5,2.4 3.4,2.9 0.8,0.5 1.8,0.7 3,0.7 1.5,0 3.5,-0.3 5.9,-1 l 0.7,0.8 -8.6,4 -19.2,-19.8 0.7,-0.7 0.9,0.9 c 0.6,0.6 1.3,1 2.1,1.3 0.6,0.2 1.2,0.2 1.7,-0.1 0.5,-0.2 1.4,-1 2.7,-2.2 l 16.7,-16.2 c 1.6,-1.6 2.5,-2.7 2.5,-3.4 0.1,-0.9 -0.4,-1.9 -1.4,-3 l -0.9,-0.9 0.7,-0.7 19.2,19.8 -5.3,5.7 -0.7,-0.7 c 1.1,-1.6 1.7,-2.8 1.9,-3.6 0.2,-0.8 0.1,-1.7 -0.2,-2.5 -0.3,-0.7 -1.1,-1.7 -2.3,-2.9 z m 26.9,31.2 -11.4,8.2 3.8,5.3 c 0.9,1.2 1.8,1.9 2.7,2.1 0.9,0.2 2.3,-0.2 4,-1.1 l 0.6,0.8 -9.9,7 -0.6,-0.8 c 1.1,-0.8 1.8,-1.6 2.2,-2.2 0.3,-0.7 0.5,-1.3 0.4,-2 -0.1,-0.7 -0.5,-1.5 -1.2,-2.5 l -3.8,-5.3 -9.1,6.5 c -1.5,1.1 -2.4,1.8 -2.7,2.4 -0.3,0.4 -0.3,0.9 -0.3,1.6 0.1,0.9 0.4,1.7 0.9,2.3 l 0.7,1.1 -0.8,0.6 -8.9,-12.5 0.8,-0.6 0.7,1 c 0.9,1.2 1.8,1.8 2.9,1.9 0.7,0 1.9,-0.6 3.7,-1.8 L 495,133 c 1.5,-1.1 2.4,-1.8 2.7,-2.4 0.3,-0.4 0.4,-0.9 0.3,-1.5 -0.1,-0.9 -0.4,-1.6 -0.9,-2.3 l -0.7,-1 0.8,-0.6 15.4,21.7 -6.2,4.8 -0.5,-0.8 c 1.1,-1.3 1.8,-2.5 2.1,-3.4 0.3,-0.9 0.3,-1.9 0.1,-2.8 -0.2,-0.9 -0.9,-2.1 -2,-3.7 z m 20.9,33.3 -12.6,6.3 3.5,7 c 0.9,1.8 1.8,2.9 2.7,3.2 1.1,0.5 2.6,0.3 4.5,-0.5 l 0.4,0.9 -11.1,5.6 -0.4,-0.9 c 1.4,-1 2.3,-1.7 2.7,-2.2 0.4,-0.6 0.6,-1.2 0.6,-2 0,-0.8 -0.3,-1.9 -1,-3.2 l -3.5,-7 -10.5,5.3 c -1.4,0.7 -2.2,1.2 -2.5,1.5 -0.2,0.3 -0.4,0.6 -0.4,1 0,0.4 0.2,1 0.6,1.9 l 2.7,5.4 c 0.9,1.8 1.7,3.1 2.3,3.7 0.7,0.7 1.5,1.2 2.7,1.6 1.5,0.5 3.4,0.7 5.9,0.8 l 0.5,0.9 -9.4,1.3 -12.3,-24.6 0.9,-0.4 0.6,1.1 c 0.4,0.8 0.9,1.4 1.6,1.9 0.5,0.4 1.1,0.5 1.6,0.5 0.6,-0.1 1.7,-0.5 3.2,-1.3 l 20.8,-10.4 c 2,-1 3.2,-1.8 3.4,-2.5 0.3,-0.9 0.2,-2 -0.5,-3.3 l -0.6,-1.1 0.9,-0.4 12.3,24.6 -6.8,3.9 -0.5,-0.9 c 1.5,-1.2 2.5,-2.1 2.9,-2.8 0.4,-0.7 0.6,-1.5 0.5,-2.5 -0.1,-0.7 -0.5,-1.9 -1.3,-3.5 z m 15.1,26.9 2.8,9.3 -19.5,28.6 19.8,-5.9 c 2.1,-0.6 3.3,-1.3 3.7,-1.9 0.5,-0.8 0.6,-1.9 0.2,-3.3 l -0.4,-1.2 0.9,-0.3 3.6,11.9 -0.9,0.3 -0.4,-1.2 c -0.4,-1.4 -1.2,-2.3 -2.2,-2.7 -0.6,-0.2 -1.9,0 -3.9,0.5 l -28.9,8.6 -0.3,-0.9 20.9,-30.8 -21.1,6.3 c -2.1,0.6 -3.4,1.2 -3.7,1.9 -0.5,0.9 -0.6,1.9 -0.2,3.3 l 0.4,1.2 -0.9,0.3 -3.6,-11.9 0.9,-0.3 0.4,1.2 c 0.4,1.5 1.2,2.4 2.2,2.7 0.6,0.2 1.9,0 3.9,-0.5 l 23.8,-7.1 c 0.9,-1.3 1.4,-2.3 1.6,-2.9 0.2,-0.6 0.3,-1.5 0.4,-2.6 0,-0.5 -0.1,-1.3 -0.4,-2.3 z m 16.6,70.6 -12.3,1.6 -0.1,-1 c 2.3,-0.6 4.1,-1.4 5.4,-2.4 1.3,-1 2.2,-2.3 2.9,-3.9 0.6,-1.6 0.8,-3.2 0.6,-4.8 -0.2,-1.8 -1,-3.2 -2.2,-4.3 -1.3,-1 -2.6,-1.5 -4,-1.3 -1.1,0.1 -2,0.6 -2.8,1.5 -1.2,1.2 -2.6,4 -4.2,8.4 l -3.2,7.3 c -0.8,1.3 -1.8,2.4 -3,3.2 a 9.33,9.33 0 0 1 -3.9,1.5 c -2.7,0.3 -5.1,-0.4 -7.3,-2.2 -2.2,-1.8 -3.5,-4.4 -3.9,-7.7 -0.1,-1 -0.2,-2 -0.1,-2.9 0,-0.6 0.2,-1.7 0.5,-3.5 0.3,-1.8 0.5,-2.9 0.4,-3.3 -0.1,-0.4 -0.2,-0.8 -0.5,-1 -0.3,-0.2 -0.9,-0.3 -1.7,-0.4 l -0.1,-1 12.2,-1.6 0.1,1 c -2.5,0.8 -4.3,1.6 -5.5,2.6 -1.2,0.9 -2.1,2.2 -2.7,3.9 -0.6,1.7 -0.8,3.5 -0.6,5.4 0.3,2.2 1.1,3.8 2.4,4.9 1.3,1.1 2.8,1.6 4.3,1.4 0.9,-0.1 1.7,-0.5 2.5,-1.1 0.8,-0.6 1.6,-1.4 2.2,-2.6 0.4,-0.7 1.3,-2.7 2.6,-6 1.3,-3.3 2.4,-5.6 3.2,-7 0.8,-1.4 1.8,-2.5 3,-3.3 1.1,-0.8 2.4,-1.3 3.9,-1.5 2.5,-0.3 4.9,0.4 7,2.1 2.1,1.7 3.3,4.1 3.7,7.1 0.2,1.9 0,3.9 -0.6,6.2 -0.3,1 -0.4,1.7 -0.4,2.2 0.1,0.5 0.2,0.8 0.5,1.1 0.3,0.3 0.9,0.4 1.7,0.5 z m -1.8,24.3 -14.1,-0.3 -0.2,7.9 c 0,2 0.2,3.4 0.8,4.1 0.8,0.9 2.2,1.5 4.2,1.6 v 1 l -12.4,-0.2 v -1 c 1.7,-0.2 2.9,-0.4 3.4,-0.7 0.6,-0.3 1.1,-0.8 1.5,-1.5 0.4,-0.7 0.6,-1.8 0.6,-3.3 l 0.2,-7.9 -11.8,-0.2 c -1.6,0 -2.5,0 -2.9,0.2 -0.3,0.1 -0.6,0.4 -0.8,0.7 -0.2,0.3 -0.3,1 -0.3,2 l -0.1,6.1 c 0,2 0.1,3.5 0.3,4.4 0.3,0.9 0.8,1.8 1.6,2.7 1.1,1.1 2.7,2.3 4.9,3.4 v 1.1 l -8.9,-3.3 0.5,-27.5 h 1 v 1.3 c 0,0.8 0.2,1.6 0.6,2.4 0.3,0.6 0.7,1 1.2,1.2 0.6,0.2 1.7,0.3 3.4,0.4 l 23.2,0.4 c 2.3,0 3.7,-0.2 4.2,-0.6 0.7,-0.6 1.1,-1.7 1.1,-3.1 v -1.3 h 1 l -0.5,27.5 -7.8,0.2 v -1 c 1.9,-0.3 3.2,-0.7 3.9,-1.2 0.7,-0.4 1.3,-1.1 1.6,-2 0.3,-0.7 0.4,-1.9 0.5,-3.7 z"
           id="path35"
           inkscape:connector-curvature="0" />
        <path
           id="use37"
           d="m 534.3,355.3 c 0.6,-2.1 -0.2,-4.4 -2.9,-5.1 -2.6,-0.6 -3.8,-2.9 -2.9,-5.1 -2.1,0.5 -3.7,2.4 -2.9,5.1 0.7,2.5 -0.6,4.7 -2.9,5.1 1.5,1.5 3.9,2 5.8,0 1.8,-1.9 4.3,-1.8 5.8,0 z"
           inkscape:connector-curvature="0" />
        <path
           id="use39"
           d="m 57.400006,355.3 c 0.6,-2.1 -0.2,-4.4 -2.9,-5.1 -2.6,-0.6 -3.8,-2.9 -2.9,-5.1 -2.1,0.5 -3.7,2.4 -2.9,5.1 0.7,2.5 -0.6,4.7 -2.9,5.1 1.5,1.5 3.9,2 5.8,0 1.8,-1.9 4.3,-1.8 5.8,0 z"
           inkscape:connector-curvature="0" />
      </g>
      <path
         id="rect1"
         style="display:inline;fill:#0d66bb;fill-opacity:1;stroke-width:2.05983"
         d="m 209.48131,181.02334 -15.73488,35.90887 66.6057,67.07092 -66.4917,65.41579 15.74223,38.3749 109.37925,-0.0222 c -0.0799,-0.32148 88.48618,-12.06407 91.2027,-103.2612 0.92985,-31.21608 -12.92374,-51.75698 -25.67443,-67.02648 -26.72416,-32.00332 -64.72295,-36.43097 -64.72295,-36.43097 z m 40.86506,39.33018 68.71276,0.004 c 0,0 1.23296,0.27633 3.16611,0.84792 l -35.29776,35.16084 z m 79.62678,3.66568 c 2.15299,0.91222 4.49296,2.04457 6.96468,3.3954 l -40.15536,39.97447 -5.15548,-5.16898 z m 13.49544,7.42025 c 2.17605,1.50201 4.35498,3.1421 6.494,5.03938 l -42.48305,41.64068 -5.42761,-5.44667 z m 11.76715,10.32315 c 8.57011,9.64463 15.28624,23.33948 15.28624,42.65523 0,18.42503 -6.73089,31.75864 -15.55836,41.32225 L 312.75268,283.407 Z m -69.37465,25.24138 5.63351,5.65033 -5.40553,5.38004 -5.40921,-5.38004 z m 10.89931,10.9341 5.39082,5.40596 -5.40185,5.29488 -5.36875,-5.3393 z m -21.12937,0.22217 5.16651,5.13937 -5.25109,5.22822 -4.8466,-4.99125 z m 10.45804,10.40092 5.33199,5.30227 -5.48275,5.37265 -5.19592,-5.35043 z m 21.3353,0.0667 42.15946,42.28495 c -1.91184,1.64344 -3.87942,3.08617 -5.85047,4.45436 l -41.69245,-41.46295 z m -10.71177,10.49719 40.55618,40.32622 c -2.60144,1.45693 -5.10224,2.66343 -7.50154,3.71752 l -38.19541,-39.00436 z m -10.42864,10.30835 35.9376,36.69385 c -5.12115,1.72854 -8.53853,2.37714 -8.53853,2.37714 l -63.35871,-0.026 z" />
      <path
         id="path1"
         style="fill:#0d66bb;stroke-width:3.00214"
         inkscape:transform-center-x="0.76014353"
         inkscape:transform-center-y="0.36973109"
         d="m 228.33739,119.24005 0.52257,6.34812 -5.77209,2.69601 6.19966,1.4653 0.78089,6.32287 3.30916,-5.44251 6.25458,1.21143 -4.15537,-4.82938 3.08498,-5.57464 -5.87601,2.45848 z m 98.20574,0.14104 -4.69428,4.3068 -5.66966,-2.90386 2.64555,5.79436 -4.51465,4.49534 6.32882,-0.72596 2.87862,5.68301 1.26636,-6.2427 6.29467,-0.9828 -5.54644,-3.13398 z m -156.23843,47.88699 -4.27414,4.72545 -5.91462,-2.36495 3.17258,5.52416 -4.07669,4.8947 6.2338,-1.31089 3.39526,5.39055 0.67994,-6.33475 6.1759,-1.56328 -5.81366,-2.60397 z m 212.10362,2.97512 0.009,6.37038 -5.97103,2.22095 6.06159,1.96115 0.26723,6.36444 3.7382,-5.15895 6.13582,1.71321 -3.75156,-5.15004 3.52442,-5.30593 -6.05565,1.97599 z m 29.87147,76.16698 -2.22392,5.96954 -6.37039,-0.0104 4.9912,3.9594 -1.97896,6.05565 5.30742,-3.52293 5.14856,3.75305 -1.71025,-6.13582 5.16044,-3.73672 -6.36444,-0.27019 z m -274.18628,0.16627 -1.95818,6.06159 -6.36444,0.2702 5.16044,3.73671 -1.71025,6.13582 5.14708,-3.75305 5.3089,3.52294 -1.97896,-6.05565 4.98971,-3.95941 -6.37038,0.0104 z"
         transform="matrix(1.3155974,0,0,1.3155974,-71.093432,-50.881667)" />
      <path
         style="font-weight:500;font-size:38px;font-family:'BB Torsos Pro';-inkscape-font-specification:'BB Torsos Pro Medium';fill:#0d66bb;stroke-width:3.94961"
         d="m 109.82984,361.22347 23.80484,-12.85225 5.99419,11.10239 q 3.13813,5.81243 1.85288,10.61816 -1.28526,4.80573 -6.54257,7.64416 l -1.27351,0.68757 q -5.38792,2.90894 -10.0369,1.32819 -4.64016,-1.56442 -7.80474,-7.42583 z m 7.5226,3.46634 2.60042,4.81648 q 1.85996,3.445 4.41433,4.15344 2.5707,0.69962 6.08101,-1.1956 l 1.27351,-0.68757 q 6.89002,-3.71993 3.28469,-10.39769 l -2.60042,-4.81648 z m 7.30474,22.94819 22.10399,-15.59692 12.97604,18.38968 -4.06301,2.86692 -9.19983,-13.03802 -4.97264,3.50877 8.8682,12.56804 -3.94172,2.78135 -8.86821,-12.56805 -5.09392,3.59435 9.3068,13.18963 -4.03269,2.84553 z m 36.63587,12.25032 -4.70862,4.14251 9.80476,11.14467 -3.7056,3.26008 -9.80476,-11.14466 -8.10775,7.13296 -4.37537,-4.9733 20.31115,-17.86918 14.70714,16.71699 -3.78918,3.33362 z m -3.57196,28.89244 18.09007,-20.11467 16.73463,15.05024 -3.32519,3.69734 -11.86463,-10.6704 -4.06964,4.52511 11.43694,10.28577 -3.22593,3.58698 -11.43695,-10.28577 -4.1689,4.63548 12.00258,10.79448 -3.30038,3.66975 z m 50.93221,5.93974 5.23871,3.51487 -15.07258,22.46481 -6.02451,-4.0421 0.21204,-21.26333 -9.90365,14.76083 -5.23871,-3.51487 15.07258,-22.46481 6.25563,4.19716 -0.29843,20.89256 z m -2.79047,19.89194 0.0154,-0.0337 6.17519,2.82574 -0.0154,0.0337 q -1.00567,2.37611 0.19714,4.02838 1.2274,1.64312 4.26438,3.03283 5.53406,2.53236 6.7848,-0.20092 0.66397,-1.45101 -0.15764,-2.64317 -0.80473,-1.18445 -3.43079,-2.93706 -0.67918,-0.43322 -2.0973,-1.34741 -1.39353,-0.92334 -1.95461,-1.30252 -4.11939,-2.68081 -5.34882,-5.34511 -1.22943,-2.6643 0.168,-5.71816 1.40515,-3.07073 5.56049,-3.67908 4.17221,-0.60064 9.31821,1.75415 5.1643,2.40397 7.50473,5.98476 2.3573,3.58851 0.63933,7.69959 l -0.0154,0.0337 -6.1752,-2.82574 0.0154,-0.0337 q 0.97766,-2.22569 -0.16396,-3.78875 -1.13389,-1.57992 -3.90092,-2.8461 -2.53081,-1.1581 -4.25404,-1.04881 -1.72322,0.10928 -2.29454,1.35782 -0.57133,1.24853 0.31005,2.48846 0.88137,1.23992 3.92295,3.24388 0.89994,0.57505 2.37784,1.537 1.50248,0.95279 1.84278,1.19014 3.50771,2.27847 4.65421,4.94564 1.15422,2.65029 -0.15828,5.51855 -1.59817,3.49253 -5.51873,4.16751 -3.91284,0.6581 -9.71685,-1.99779 -12.07129,-5.50336 -8.54843,-14.09384 z m 24.28219,20.33625 7.19259,-26.07905 21.69677,5.98396 -1.32209,4.79368 -15.38271,-4.24254 -1.61809,5.86689 14.82822,4.08961 -1.28263,4.65059 -14.82822,-4.08962 -1.65755,6.00999 15.56158,4.29188 -1.31223,4.7579 z m 36.86327,8.04865 2.65011,-26.92261 6.59216,0.64889 -2.65011,26.92262 z m 30.34483,-25.93923 6.30799,-0.0873 0.37431,27.05014 -7.25419,0.10038 -11.91573,-17.6122 0.24595,17.77368 -6.30799,0.0873 -0.37431,-27.05014 7.53248,-0.10423 11.63384,17.35631 z m 25.81208,-3.46292 6.21008,-1.11056 4.76232,26.63026 -7.14158,1.27714 -14.61779,-15.44327 3.12915,17.4978 -6.21007,1.11056 -4.76233,-26.63026 7.41556,-1.32614 14.29809,15.23655 z m 10.41963,12.58929 -0.49194,-1.36109 q -2.04344,-5.65377 0.36259,-10.35089 2.41718,-4.72088 8.76895,-7.0166 6.36921,-2.30202 11.27616,-0.18885 4.90694,2.11318 6.91885,7.6797 l 0.49194,1.36109 q 2.03083,5.61887 -0.39749,10.36351 -2.43463,4.72718 -8.7864,7.0229 -6.50881,2.35248 -11.27175,0.36482 -4.75178,-2.01142 -6.87091,-7.87459 z m 6.31686,-2.2831 q 1.25508,3.47253 3.83932,4.9455 2.59537,1.44921 6.2773,0.11845 3.64703,-1.31815 4.69091,-4.16161 1.06132,-2.84978 -0.14961,-6.20016 l -0.49194,-1.36109 q -1.21723,-3.36783 -3.86643,-4.85678 -2.63806,-1.5127 -6.25019,-0.20717 -3.68193,1.33076 -4.73841,4.13933 -1.04535,2.7848 0.19711,6.22244 z m 42.35737,-5.06681 -6.88961,3.79815 -23.10255,-18.15516 6.25589,-3.4488 17.51576,14.28561 -2.74535,-22.42834 5.96341,-3.28755 z m 6.84456,-3.81004 -6.93027,-28.58351 6.91475,-5.16018 24.86399,15.20033 -5.63589,4.20582 -4.71676,-3.03203 -10.42417,7.77912 1.47501,5.45121 z m 2.89205,-14.42865 7.3906,-5.51529 -10.88571,-7.11032 z m 15.49992,-29.14387 15.2331,15.88113 -4.75363,4.55966 -15.2331,-15.88113 -7.01662,6.73031 -3.4936,-3.64222 18.78687,-18.02028 3.4936,3.64222 z m 24.1383,6.60478 -20.25262,-17.93549 4.39161,-4.95897 20.25262,17.93549 z m -3.10431,-15.27757 -1.16136,-0.86361 q -4.8241,-3.58731 -5.40964,-8.83222 -0.58936,-5.27087 3.44083,-10.69055 4.04126,-5.43456 9.29954,-6.38012 5.25828,-0.94556 10.00794,2.58639 l 1.16136,0.86361 q 4.79432,3.56517 5.3875,8.862 0.57828,5.28577 -3.4519,10.70544 -4.12984,5.55367 -9.19876,6.52443 -5.07273,0.9448 -10.07551,-2.77537 z m 4.00805,-5.38989 q 2.96295,2.20332 5.93091,2.00561 2.96415,-0.22366 5.30033,-3.36528 2.31404,-3.11184 1.61544,-6.0592 -0.68752,-2.96225 -3.54625,-5.08807 l -1.16136,-0.86361 q -2.87362,-2.13688 -5.90458,-1.91666 -3.03477,0.19427 -5.32667,3.27633 -2.33618,3.14162 -1.66736,6.06684 0.665,2.89925 3.59818,5.08043 z m 11.40784,-43.31757 3.09856,-5.4952 23.56473,13.28735 -3.56334,6.31949 -21.21588,1.43548 15.48355,8.73065 -3.09856,5.4952 -23.56474,-13.28735 3.70005,-6.56192 20.85291,-1.32064 z"
         id="text3"
         aria-label="DEFENSE INNOVATION" />
    </g>
  </g>
</svg>
